<svg width="22" height="22" viewBox="0 0 22 22" fill="none" xmlns="http://www.w3.org/2000/svg">
<path fill-rule="evenodd" clip-rule="evenodd" d="M0 6.45455C0 2.90226 2.90226 0 6.45455 0H15.5455C19.0977 0 22 2.90226 22 6.45455V15.5455C22 19.0977 19.0977 22 15.5455 22H6.45455C2.90226 22 0 19.0977 0 15.5455V6.45455ZM6.45455 2C4.00683 2 2 4.00683 2 6.45455V15.5455C2 17.9932 4.00683 20 6.45455 20H15.5455C17.9932 20 20 17.9932 20 15.5455V6.45455C20 4.00683 17.9932 2 15.5455 2H6.45455ZM11 14C12.6569 14 14 12.6569 14 11C14 9.34315 12.6569 8 11 8C9.34315 8 8 9.34315 8 11C8 12.6569 9.34315 14 11 14ZM11 16C13.7614 16 16 13.7614 16 11C16 8.23858 13.7614 6 11 6C8.23858 6 6 8.23858 6 11C6 13.7614 8.23858 16 11 16ZM16 6C16.5523 6 17 5.55228 17 5C17 4.44771 16.5523 4 16 4C15.4477 4 15 4.44771 15 5C15 5.55228 15.4477 6 16 6Z" fill="#333333"/>
</svg>
